<?xml version="1.0" encoding="utf-8"?><svg xmlns="http://www.w3.org/2000/svg" xmlns:xlink="http://www.w3.org/1999/xlink"><symbol fill="none" viewBox="0 0 24 24" id="icon_add_circle_fill" xmlns="http://www.w3.org/2000/svg"><path fill-rule="evenodd" clip-rule="evenodd" d="M19.071 19.071c-3.905 3.905-10.237 3.905-14.142 0-3.905-3.905-3.905-10.237 0-14.142 3.905-3.905 10.237-3.905 14.142 0 3.905 3.905 3.905 10.237 0 14.142Zm-6.423-11.7a.648.648 0 1 0-1.296 0v3.981H7.37a.648.648 0 0 0 0 1.296h3.982v3.982a.648.648 0 1 0 1.296 0v-3.982h3.981a.648.648 0 1 0 0-1.296h-3.981V7.371Z" fill="currentColor"/></symbol><symbol fill="none" viewBox="0 0 24 24" id="icon_add_circle_regular" xmlns="http://www.w3.org/2000/svg"><path d="M12 6.722c.358 0 .648.29.648.648v3.982h3.981a.648.648 0 0 1 0 1.296h-3.981v3.982a.648.648 0 1 1-1.296 0v-3.982H7.37a.648.648 0 1 1 0-1.296h3.981V7.37c0-.357.29-.648.649-.648Z" fill="currentColor"/><path fill-rule="evenodd" clip-rule="evenodd" d="M12 2C6.477 2 2 6.477 2 12s4.477 10 10 10 10-4.477 10-10S17.523 2 12 2ZM3.481 12a8.519 8.519 0 1 1 17.038 0A8.519 8.519 0 0 1 3.48 12Z" fill="currentColor"/></symbol><symbol fill="none" viewBox="0 0 24 24" id="icon_add_circle_thin" xmlns="http://www.w3.org/2000/svg"><path d="M6.717 12c0-.313.253-.566.566-.566h4.151V7.283a.566.566 0 1 1 1.132 0v4.151h4.151a.566.566 0 1 1 0 1.132h-4.151v4.151a.566.566 0 1 1-1.132 0v-4.151H7.283A.566.566 0 0 1 6.717 12Z" fill="currentColor"/><path fill-rule="evenodd" clip-rule="evenodd" d="M2 12C2 6.477 6.477 2 12 2s10 4.477 10 10-4.477 10-10 10S2 17.523 2 12Zm10-8.868a8.868 8.868 0 1 0 0 17.736 8.868 8.868 0 0 0 0-17.736Z" fill="currentColor"/></symbol></svg>